<?xml version="1.0" standalone="no"?>
<!DOCTYPE svg PUBLIC "-//W3C//DTD SVG 20010904//EN"
 "http://www.w3.org/TR/2001/REC-SVG-20010904/DTD/svg10.dtd">
<svg version="1.0" xmlns="http://www.w3.org/2000/svg"
 width="700.000000pt" height="700.000000pt" viewBox="0 0 700.000000 700.000000"
 preserveAspectRatio="xMidYMid meet">
<metadata>
Created by potrace 1.14, written by Peter Selinger 2001-2017
</metadata>
<g transform="translate(0.000000,700.000000) scale(0.100000,-0.100000)"
fill="#000000" stroke="none">
<path d="M3321 6699 c-72 -13 -217 -62 -288 -98 -32 -16 -89 -52 -128 -80 -68
-51 -71 -52 -120 -45 -83 12 -235 6 -320 -11 -260 -54 -487 -216 -621 -444
l-43 -74 -72 -19 c-232 -59 -436 -247 -508 -470 -11 -33 -18 -38 -69 -53 -286
-83 -496 -340 -519 -637 l-6 -77 -56 -45 c-144 -116 -237 -286 -261 -480 -5
-44 -7 -101 -4 -126 l6 -45 -106 3 c-177 6 -190 -14 -176 -257 16 -264 56
-481 131 -716 331 -1037 1241 -1853 2394 -2148 l130 -34 6 -129 c4 -79 12
-145 22 -170 37 -99 110 -178 206 -223 l56 -26 530 0 530 0 65 31 c79 37 151
107 187 183 24 50 28 70 33 196 l5 140 143 37 c243 64 425 131 662 245 261
125 454 245 670 417 701 559 1122 1348 1169 2195 14 247 2 265 -175 259 l-106
-3 5 49 c20 213 -95 468 -275 611 -45 35 -48 40 -48 84 0 62 -23 167 -53 241
-80 196 -244 350 -444 416 l-82 27 -22 59 c-82 219 -268 386 -498 446 l-70 18
-56 90 c-136 217 -364 378 -607 428 -78 16 -293 20 -353 7 -26 -6 -40 0 -95
42 -86 65 -245 141 -350 168 -96 25 -325 35 -419 18z m379 -219 c102 -29 232
-98 308 -165 35 -30 74 -58 88 -61 13 -3 63 2 111 11 160 32 316 10 473 -67
70 -35 102 -59 180 -137 81 -82 103 -111 144 -193 27 -53 56 -100 65 -104 9
-3 57 -15 106 -25 118 -24 205 -69 281 -145 68 -67 125 -169 145 -259 16 -70
41 -94 121 -111 139 -29 252 -93 326 -186 80 -100 130 -259 117 -372 -7 -67 6
-92 79 -140 156 -103 246 -266 246 -445 0 -97 -8 -119 -44 -127 -188 -39 -402
-143 -543 -261 -45 -38 -66 -47 -150 -68 -135 -32 -229 -68 -356 -132 -302
-154 -505 -384 -603 -682 -21 -61 -32 -81 -45 -81 -36 0 -186 -53 -274 -97
-49 -25 -120 -68 -157 -95 -99 -73 -225 -212 -285 -314 -64 -108 -57 -101
-135 -144 -134 -74 -286 -260 -360 -442 -18 -43 -35 -78 -38 -78 -3 0 -20 35
-38 78 -84 205 -245 392 -403 467 -23 11 -43 31 -54 54 -56 119 -202 290 -324
380 -111 82 -356 191 -430 191 -13 0 -24 20 -45 81 -133 404 -479 698 -958
814 -87 21 -103 29 -161 77 -126 104 -301 190 -484 239 -93 25 -93 25 -93 148
0 175 91 338 244 436 30 19 61 45 68 58 7 12 13 65 14 122 3 182 77 328 214
424 74 52 134 78 217 93 87 16 116 41 132 111 49 221 230 383 459 412 28 4 62
15 74 24 12 10 42 57 67 105 98 185 244 310 436 372 105 34 259 43 363 20 85
-18 106 -13 165 40 98 89 249 163 384 189 101 19 253 12 353 -15z m-3283
-2716 c242 -43 429 -128 570 -257 57 -54 65 -58 142 -72 373 -71 684 -282 823
-560 24 -47 61 -153 87 -252 13 -49 48 -80 100 -88 309 -49 549 -220 681 -485
43 -87 52 -96 139 -136 184 -85 325 -313 390 -634 23 -113 46 -299 37 -307 -9
-9 -294 15 -437 37 -1431 220 -2534 1268 -2694 2560 -8 69 -15 146 -15 173 l0
48 48 -6 c26 -4 84 -13 129 -21z m6340 -71 c-34 -506 -244 -1038 -587 -1483
-115 -149 -401 -428 -565 -551 -546 -409 -1178 -638 -1887 -685 -126 -8 -116
-25 -93 150 27 203 69 353 137 491 76 152 164 245 283 301 82 38 92 48 135
134 49 98 100 168 177 241 138 134 299 211 505 244 64 10 86 39 115 145 13 52
40 127 58 166 135 294 429 503 822 585 93 19 99 22 157 76 167 155 406 246
735 282 12 1 13 -16 8 -96z m-3632 -2918 c266 -28 587 -21 938 21 l57 7 0 -79
c-1 -124 -47 -199 -141 -224 -26 -7 -193 -10 -497 -8 -510 3 -493 1 -549 75
-26 33 -28 45 -31 136 l-4 100 39 -6 c21 -4 106 -13 188 -22z"/>
<path d="M3885 4858 c-56 -31 -70 -100 -38 -194 24 -70 109 -154 188 -184 89
-33 178 -37 262 -11 37 11 81 29 97 40 l29 20 46 -41 c226 -198 616 -137 741
116 36 73 49 160 30 206 -14 33 -55 60 -90 60 -50 0 -99 -47 -100 -95 -1 -39
-31 -104 -61 -132 -98 -90 -290 -90 -388 0 -30 28 -60 93 -61 132 0 33 -23 67
-57 84 -65 33 -143 -18 -143 -93 0 -56 -75 -109 -155 -109 -80 0 -155 53 -155
109 0 76 -81 127 -145 92z"/>
<path d="M1750 4833 c-42 -38 -48 -84 -21 -170 38 -125 135 -219 271 -263 58
-19 86 -22 172 -18 94 3 110 7 180 40 129 61 205 155 229 281 12 68 4 101 -33
132 -67 57 -150 15 -168 -84 -12 -67 -46 -112 -104 -140 -91 -45 -208 -36
-285 20 -47 34 -66 66 -75 131 -13 91 -102 128 -166 71z"/>
<path d="M2634 3651 c-43 -26 -55 -65 -44 -142 25 -175 176 -322 375 -364 88
-19 142 -19 230 0 93 20 182 65 249 125 44 41 56 47 65 36 19 -23 128 -67 191
-77 221 -35 441 121 444 318 1 52 -3 65 -23 87 -31 33 -70 41 -114 22 -40 -16
-52 -34 -62 -91 -10 -55 -37 -89 -88 -114 -68 -33 -165 -25 -222 19 -34 26
-47 49 -56 97 -16 83 -73 118 -143 89 -39 -16 -66 -62 -66 -111 0 -60 -59
-135 -140 -176 -61 -31 -187 -38 -258 -15 -106 36 -166 102 -182 202 -11 68
-39 102 -91 110 -23 3 -44 -1 -65 -15z"/>
</g>
</svg>
