<svg width="16px" height="16px" viewBox="0 0 16 16" version="1.1" xmlns="http://www.w3.org/2000/svg"
          xmlns:xlink="http://www.w3.org/1999/xlink">
          <g id="Home" stroke="none" stroke-width="1" fill="none" fill-rule="evenodd">
            <g id="Desktop" transform="translate(-899.000000, -22.000000)" fill="#FAD30A" fill-rule="nonzero">
              <g id="icon-github" transform="translate(899.000000, 22.000000)">
                <path
                  d="M7.10197333,0.055484629 C3.41450283,0.456296641 0.448493937,3.42230553 0.0476819249,7.02961364 C-0.353130087,10.7972465 1.81125478,14.1640674 5.09791328,15.4466659 C5.33840048,15.5268283 5.57888769,15.3665035 5.57888769,15.0458539 L5.57888769,13.7632554 C5.57888769,13.7632554 5.25823808,13.8434178 4.85742607,13.8434178 C3.73515243,13.8434178 3.25417802,12.881469 3.17401562,12.3203322 C3.09385322,11.9996826 2.93352841,11.7591954 2.6930412,11.5187082 C2.452554,11.4385458 2.37239159,11.4385458 2.37239159,11.3583834 C2.37239159,11.1980586 2.6128788,11.1980586 2.6930412,11.1980586 C3.17401562,11.1980586 3.57482763,11.7591954 3.73515243,11.9996826 C4.13596445,12.6409818 4.61693886,12.8013066 4.85742607,12.8013066 C5.17807568,12.8013066 5.41856288,12.7211442 5.57888769,12.6409818 C5.65905009,12.079845 5.8995373,11.5187082 6.38051171,11.1980586 C4.53677646,10.7972465 3.17401562,9.75513532 3.17401562,7.99156247 C3.17401562,7.10977604 3.57482763,6.22798961 4.13596445,5.58669039 C4.05580204,5.42636559 3.97563964,5.02555358 3.97563964,4.46441676 C3.97563964,4.14376715 3.97563964,3.66279274 4.21612685,3.18181832 C4.21612685,3.18181832 5.33840048,3.18181832 6.46067412,4.22392955 C6.86148613,4.06360475 7.42262294,3.98344235 7.98375976,3.98344235 C8.54489658,3.98344235 9.10603339,4.06360475 9.58700781,4.22392955 C10.629119,3.18181832 11.8315551,3.18181832 11.8315551,3.18181832 C11.9918799,3.66279274 11.9918799,4.14376715 11.9918799,4.46441676 C11.9918799,5.10571598 11.9117175,5.42636559 11.8315551,5.58669039 C12.3926919,6.22798961 12.7935039,7.02961364 12.7935039,7.99156247 C12.7935039,9.75513532 11.4307431,10.7972465 9.58700781,11.1980586 C10.0679822,11.5988706 10.3886318,12.3203322 10.3886318,13.0417938 L10.3886318,15.1260163 C10.3886318,15.3665035 10.629119,15.6069907 10.9497686,15.5268283 C13.9157775,14.3243923 16,11.4385458 16,8.07172487 C16,3.26198072 11.9117175,-0.505652188 7.10197333,0.055484629 Z"
                  id="Path"></path>
              </g>
            </g>
          </g>
        </svg>
