<svg width="16px" height="16px" viewBox="0 0 16 16" version="1.1" xmlns="http://www.w3.org/2000/svg"
          xmlns:xlink="http://www.w3.org/1999/xlink">
          <g id="Home" stroke="none" stroke-width="1" fill="none" fill-rule="evenodd">
            <g id="Desktop" transform="translate(-805.000000, -26.000000)" fill="#FAD30B" fill-rule="nonzero">
              <g id="Linkedin" transform="translate(805.000000, 23.000000)">
                <g id="icon-linkedin" transform="translate(0.000000, 3.000000)">
                  <path
                    d="M14.0952381,0 L1.9047619,0 C0.853333333,0 0,0.853333333 0,1.9047619 L0,14.0952381 C0,15.1466667 0.853333333,16 1.9047619,16 L14.0952381,16 C15.1466667,16 16,15.1466667 16,14.0952381 L16,1.9047619 C16,0.853333333 15.1466667,0 14.0952381,0 Z M4.95238095,6.0952381 L4.95238095,13.3333333 L2.66666667,13.3333333 L2.66666667,6.0952381 L4.95238095,6.0952381 Z M2.66666667,3.98857143 C2.66666667,3.4552381 3.12380952,3.04761905 3.80952381,3.04761905 C4.4952381,3.04761905 4.92571429,3.4552381 4.95238095,3.98857143 C4.95238095,4.52190476 4.52571429,4.95238095 3.80952381,4.95238095 C3.12380952,4.95238095 2.66666667,4.52190476 2.66666667,3.98857143 Z M13.3333333,13.3333333 L11.047619,13.3333333 C11.047619,13.3333333 11.047619,9.80571429 11.047619,9.52380952 C11.047619,8.76190476 10.6666667,8 9.71428571,7.9847619 L9.68380952,7.9847619 C8.76190476,7.9847619 8.38095238,8.76952381 8.38095238,9.52380952 C8.38095238,9.87047619 8.38095238,13.3333333 8.38095238,13.3333333 L6.0952381,13.3333333 L6.0952381,6.0952381 L8.38095238,6.0952381 L8.38095238,7.07047619 C8.38095238,7.07047619 9.11619048,6.0952381 10.5942857,6.0952381 C12.1066667,6.0952381 13.3333333,7.1352381 13.3333333,9.24190476 L13.3333333,13.3333333 Z"
                    id="Shape"></path>
                </g>
              </g>
            </g>
          </g>
        </svg>
