<svg width="36px" height="31px" viewBox="0 0 36 31" version="1.1" xmlns="http://www.w3.org/2000/svg" xmlns:xlink="http://www.w3.org/1999/xlink">
    <g id="Home" stroke="none" stroke-width="1" fill="none" fill-rule="evenodd">
        <g id="Desktop" transform="translate(-74.000000, -30.000000)">
            <g id="logotipo" transform="translate(76.000000, 32.000000)">
                <g id="Stack" stroke="#FFFFFF">
                    <polyline id="Path" stroke-width="3.66666667" points="0 7.85592628 0 22 29.3333333 22 29.3333333 7.85592628"></polyline>
                    <line x1="5.03625202" y1="16.7818409" x2="25.0275244" y2="16.7818409" id="Path" stroke-width="3.66666667"></line>
                    <line x1="4.67103049" y1="5.61454737" x2="24.6623028" y2="5.61454737" id="Path" stroke-width="3.33333333"></line>
                    <line x1="5.03625202" y1="11.2172204" x2="25.0275244" y2="11.2172204" id="Path" stroke-width="3.66666667"></line>
                    <line x1="4.67103049" y1="0.05" x2="24.6623028" y2="0.05" id="Path" stroke-width="3.66666667"></line>
                </g>
                <g id="Couve" transform="translate(14.333333, 10.666667)">
                    <path d="M7.37153268,15.0105865 L11.3322738,15.0105865 L11.3322738,16.5428248 C11.3322738,16.9764869 10.9778344,17.3333333 10.547107,17.3333333 L8.1570901,17.3333333 C7.72636265,17.3333333 7.37192333,16.9764869 7.37192333,16.5428248 L7.37192333,15.0105865 L7.37153268,15.0105865 Z" id="Path" fill="#E3E3E3" fill-rule="nonzero"></path>
                    <path d="M7.37153268,15.0105865 L11.3322738,15.0105865 L11.3322738,16.5428248 C11.3322738,16.9764869 10.9778344,17.3333333 10.547107,17.3333333 L8.1570901,17.3333333 C7.72636265,17.3333333 7.37192333,16.9764869 7.37192333,16.5428248 L7.37192333,15.0105865 L7.37153268,15.0105865 Z" id="Path" stroke="#FFFFFF" stroke-width="1.66666667"></path>
                    <path d="M16.9854912,5.50504376 C16.9935553,5.43640323 16.9976943,5.36736003 16.9978897,5.29824192 C16.998085,4.40814375 16.3200769,3.65403436 15.4403359,3.56584112 C15.3056272,2.76798158 14.6353577,2.16473153 13.8327884,2.11905234 C13.4034469,1.00765635 12.1931706,0.397645251 11.0521228,0.717530718 C10.0966425,-0.233192115 8.53875392,-0.238436139 7.57697672,0.705825308 C6.44410467,0.408976088 5.25661621,1.01975506 4.83159038,2.11788179 C4.02902114,2.16356099 3.35874231,2.76681104 3.2240336,3.56467058 C2.34429264,3.65286382 1.66629384,4.40697321 1.66647987,5.29707138 C1.66667519,5.36618949 1.67082351,5.43523269 1.67887831,5.50387322 C0.922228908,5.91178337 0.576337352,6.82852306 0.873165287,7.63932409 C1.44673995,7.74428885 2.17997834,7.98463371 2.67953437,8.53323355 C2.67953437,8.53323355 5.15208976,8.80635356 5.57180463,11.0600384 C5.57180463,11.0600384 7.13323695,11.154075 7.79866057,12.751077 C7.79866057,12.751077 8.84232519,12.9551445 9.20894904,14.8038221 L9.45542979,14.8038221 C9.82204433,12.9551445 10.8657182,12.751077 10.8657182,12.751077 C11.5311326,11.154075 13.0914022,11.0600384 13.0914022,11.0600384 C13.5111171,8.80596962 15.9836818,8.53323355 15.9836818,8.53323355 C16.4832285,7.98463371 17.2164669,7.74428885 17.7900416,7.63932409 C18.0863859,6.82913174 17.7411361,5.91326294 16.9854912,5.50504376 Z" id="Path" fill="#FFFFFF" fill-rule="nonzero"></path>
                    <path d="M16.9854912,5.50504376 C16.9935553,5.43640323 16.9976943,5.36736003 16.9978897,5.29824192 C16.998085,4.40814375 16.3200769,3.65403436 15.4403359,3.56584112 C15.3056272,2.76798158 14.6353577,2.16473153 13.8327884,2.11905234 C13.4034469,1.00765635 12.1931706,0.397645251 11.0521228,0.717530718 C10.2309606,-0.0979243876 8.94795847,-0.234287742 7.97576397,0.390556454 C9.32759464,0.137129627 10.6798625,0.895040933 11.1780791,2.18538924 C12.1737218,2.24208089 13.0052363,2.99042185 13.1724061,3.98021266 C14.2632276,4.08880142 15.1043315,5.02347379 15.1043315,6.12705056 C15.1043315,6.21362378 15.0991508,6.30012208 15.0888265,6.38606789 C15.7844789,6.76177412 16.2200336,7.49497297 16.2196988,8.289761 L16.2196988,8.31160798 C16.6975459,7.91713563 17.304828,7.72633744 17.7931389,7.63815355 C18.0883205,6.82752108 17.7417407,5.91214858 16.9854912,5.50504376 L16.9854912,5.50504376 Z" id="Path" fill="#E3E3E3" fill-rule="nonzero"></path>
                    <path d="M10.8656996,12.7510676 C11.531114,11.1540657 13.0913836,11.0600291 13.0913836,11.0600291 C13.5110985,8.80596025 15.9836632,8.53322418 15.9836632,8.53322418 C16.9164859,7.50900073 18.6643323,7.55777016 18.6643323,7.55777016 C18.6654947,12.2305702 14.4865577,16.0176639 9.33219871,16.0176639 C9.39691619,13.0382435 10.8657276,12.7510676 10.8657276,12.7510676 L10.8656996,12.7510676 Z" id="Path" fill="#FFFFFF" fill-rule="nonzero"></path>
                    <path d="M16.3467805,8.21330126 C16.0642578,11.8993351 13.1762474,14.9349415 9.34030002,15.8175294 C9.33719344,15.8830798 9.33486815,15.9494073 9.33332415,16.017692 C14.4877111,16.017692 18.6666667,12.2305983 18.6666667,7.55896879 C18.665504,7.55896879 17.3067626,7.52034093 16.3467991,8.21330126 L16.3467805,8.21330126 Z" id="Path" fill="#E3E3E3" fill-rule="nonzero"></path>
                    <path d="M7.79864197,12.7510676 C7.13321835,11.1540657 5.57294867,11.0600291 5.57294867,11.0600291 C5.15323381,8.80596025 2.68067841,8.53322418 2.68067841,8.53322418 C1.74784642,7.50900073 0,7.55777016 0,7.55777016 C-0.00116240252,12.2305702 4.1777746,16.0176639 9.3321336,16.0176639 C9.26740683,13.0382435 7.79860477,12.7510676 7.79860477,12.7510676 L7.79864197,12.7510676 Z" id="Path" fill="#FFFFFF" fill-rule="nonzero"></path>
                    <g id="Group" transform="translate(0.000000, 0.001045)" stroke="#7E23B3" stroke-width="1.66666667">
                        <path d="M16.9854912,5.50399906 C16.9935553,5.43535853 16.9976943,5.36631534 16.9978897,5.29719723 C16.998085,4.40709906 16.3200769,3.65298967 15.4403359,3.56479642 C15.3056272,2.76693689 14.6353577,2.16368684 13.8327884,2.11800764 C13.4034469,1.00661165 12.1931706,0.396600556 11.0521228,0.716486023 C10.0966425,-0.23423681 8.53875392,-0.239480835 7.57697672,0.704780613 C6.44410467,0.407931393 5.25661621,1.01871037 4.83159038,2.1168371 C4.02902114,2.16251629 3.35874231,2.76576635 3.2240336,3.56362588 C2.34429264,3.65181913 1.66629384,4.40592852 1.66647987,5.29602669 C1.66667519,5.3651448 1.67082351,5.43418799 1.67887831,5.50282852 C0.922228908,5.91073868 0.576337352,6.82747836 0.873165287,7.6382794 C1.44673995,7.74324416 2.17997834,7.98358902 2.67953437,8.53218885 C2.67953437,8.53218885 5.15208976,8.80530886 5.57180463,11.0589938 C5.57180463,11.0589938 7.13323695,11.1530303 7.79866057,12.7500323 C7.79866057,12.7500323 8.84232519,12.9540998 9.20894904,14.8027774 L9.45542979,14.8027774 C9.82204433,12.9540998 10.8657182,12.7500323 10.8657182,12.7500323 C11.5311326,11.1530303 13.0914022,11.0589938 13.0914022,11.0589938 C13.5111171,8.80492492 15.9836818,8.53218885 15.9836818,8.53218885 C16.4832285,7.98358902 17.2164669,7.74324416 17.7900416,7.6382794 C18.0863859,6.82808705 17.7411361,5.91221824 16.9854912,5.50399906 Z" id="Path"></path>
                        <path d="M10.8656996,12.750023 C11.531114,11.153021 13.0913836,11.0589844 13.0913836,11.0589844 C13.5110985,8.80491556 15.9836632,8.53217949 15.9836632,8.53217949 C16.9164859,7.50795604 18.6643323,7.55672546 18.6643323,7.55672546 C18.6654947,12.2295255 14.4865577,16.0166192 9.33219871,16.0166192 C9.39691619,13.0371988 10.8657276,12.750023 10.8657276,12.750023 L10.8656996,12.750023 Z" id="Path"></path>
                        <path d="M7.79864197,12.750023 C7.13321835,11.153021 5.57294867,11.0589844 5.57294867,11.0589844 C5.15323381,8.80491556 2.68067841,8.53217949 2.68067841,8.53217949 C1.74784642,7.50795604 0,7.55672546 0,7.55672546 C-0.00116240252,12.2295255 4.1777746,16.0166192 9.3321336,16.0166192 C9.26740683,13.0371988 7.79860477,12.750023 7.79860477,12.750023 L7.79864197,12.750023 Z" id="Path"></path>
                    </g>
                    <path d="M10.8463532,8.48411764 C10.8463532,8.85244478 10.4925278,9.15093276 10.0565359,9.15093276 C9.62054399,9.15093276 9.26670924,8.85244478 9.26670924,8.48411764 C9.26670924,8.99408025 8.77684502,9.40767456 8.17305089,9.40767456 C7.56924745,9.40767456 7.07938323,8.99408025 7.07938323,8.48411764" id="Path" stroke="#581888" stroke-width="0.555466667"></path>
                    <path d="M10.5204406,5.13515277 C10.5204406,5.46524536 10.837452,5.73290597 11.2284914,5.73290597 C11.6195215,5.73290597 11.9365423,5.4660226 11.9365423,5.13515277 C11.9365423,5.59244104 12.3752408,5.96310926 12.9170334,5.96310926 C13.458826,5.96310926 13.8975338,5.59244104 13.8975338,5.13515277" id="Path" stroke="#581888" stroke-width="0.555466667"></path>
                    <path d="M4.66536004,5.15697166 C4.66536004,5.59007186 5.08119632,5.94084089 5.59353214,5.94084089 C6.10587727,5.94084089 6.52171355,5.58967856 6.52171355,5.15697166" id="Path" stroke="#581888" stroke-width="0.555466667"></path>
                </g>
            </g>
        </g>
    </g>
</svg>
