<svg width="16px" height="19px" viewBox="0 0 16 19" version="1.1" xmlns="http://www.w3.org/2000/svg"
          xmlns:xlink="http://www.w3.org/1999/xlink">
          <g id="Home" stroke="none" stroke-width="1" fill="none" fill-rule="evenodd">
            <g id="Desktop" transform="translate(-672.000000, -25.000000)">
              <g id="icon-stackoverflow" transform="translate(672.000000, 25.000000)">
                <polygon id="Path" fill="#FAD30B"
                  points="13.4969655 12.2404973 15.1840724 12.2404973 15.1840724 18.9889984 0 18.9889984 0 12.2404973 1.68710688 12.2404973 1.68710688 17.3018548 13.4969655 17.3018548 13.4969655 12.2404973">
                </polygon>
                <path
                  d="M3.52576001,11.7389628 L11.8118095,13.4805483 L12.1601413,11.824104 L3.87405502,10.0817823 L3.52576001,11.7389628 Z M4.62221568,7.77133707 L12.2979943,11.3462015 L13.0130261,9.81104572 L5.33710021,6.23621815 L4.62221568,7.77133707 L4.62221568,7.77133707 Z M6.74614532,4.00553989 L13.2535418,9.42439482 L14.3372613,8.12301859 L7.82990158,2.7043109 L6.74614532,4.00553989 Z M10.9466303,0 L9.58772023,1.01072548 L14.6411268,7.80523897 L16,6.79466073 L10.9466303,0 L10.9466303,0 Z M3.37425057,15.6147479 L11.8098218,15.6147479 L11.8098218,13.927641 L3.37425057,13.927641 L3.37425057,15.6147479 L3.37425057,15.6147479 Z"
                  id="Shape" fill="#FBD30D" fill-rule="nonzero"></path>
              </g>
            </g>
          </g>
        </svg>
